# xmcd
#
# Track frame offsets: 
#        150
#        17557
#        37764
#        53919
#
# Disc length: 1060 seconds
#
# Revision: 1
# Processed by: cddbd v1.5.1PL0 Copyright (c) Steve Scherf et al.
# Submitted via: ExactAudioCopy v0.90b4
#
DISCID=23042204
DTITLE=NANA - dreams
DYEAR=1991
DGENRE=JPop
TTITLE0=dreams - single version
TTITLE1=dreams - album version
TTITLE2=nigga 4 life
TTITLE3=judgament day
EXTD=YEAR: 1991
EXTT0=
EXTT1=
EXTT2=
EXTT3=
PLAYORDER=
